<mxfile host="Electron" agent="Mozilla/5.0 (Windows NT 10.0; Win64; x64) AppleWebKit/537.36 (KHTML, like Gecko) draw.io/24.7.5 Chrome/126.0.6478.183 Electron/31.3.0 Safari/537.36" version="24.7.5">
  <diagram name="Page-1" id="e0vYPehYXKgEZOdpKl9w">
    <mxGraphModel dx="1050" dy="638" grid="0" gridSize="10" guides="1" tooltips="1" connect="1" arrows="1" fold="1" page="1" pageScale="1" pageWidth="827" pageHeight="1169" math="0" shadow="0">
      <root>
        <mxCell id="0" />
        <mxCell id="1" parent="0" />
        <mxCell id="rMOjp1tw2oeh-Dq2tg3I-19" value="&lt;h1&gt; AI Definition&lt;/h1&gt;&lt;p&gt;It is a branch of computer science by which we can create intelligent machines which can behave like a human, think like humans, and able to make decisions.&lt;/p&gt;&lt;p&gt;AI means&amp;nbsp;&quot;a man-made thinking power.&quot;&lt;/p&gt;" style="text;html=1;strokeColor=none;fillColor=none;spacing=5;spacingTop=-20;whiteSpace=wrap;overflow=hidden;rounded=0;" parent="1" vertex="1">
          <mxGeometry x="9" y="10" width="810" height="110" as="geometry" />
        </mxCell>
        <mxCell id="rMOjp1tw2oeh-Dq2tg3I-20" value="&lt;h1&gt;Why AI?&lt;/h1&gt;&lt;p&gt;With the help of AI&lt;br&gt;&lt;/p&gt;&lt;p&gt;&lt;/p&gt;&lt;ul&gt;&lt;li&gt;you can create such software or devices which can solve real-world problems very easily and with accuracy such as health issues, marketing, traffic issues, etc.&lt;/li&gt;&lt;li&gt;you can create your personal virtual Assistant, such as Cortana, Google Assistant, Siri, etc.&lt;/li&gt;&lt;li&gt;you can build such Robots which can work in an environment where survival of humans can be at risk.&lt;/li&gt;&lt;/ul&gt;&lt;div&gt;&lt;/div&gt;&lt;p&gt;&lt;/p&gt;&lt;div&gt;AI opens a path for other new technologies, new devices, and new Opportunities.&lt;/div&gt;&lt;div&gt;&lt;br&gt;&lt;/div&gt;" style="text;html=1;strokeColor=none;fillColor=none;spacing=5;spacingTop=-20;whiteSpace=wrap;overflow=hidden;rounded=0;" parent="1" vertex="1">
          <mxGeometry x="9" y="124" width="810" height="170" as="geometry" />
        </mxCell>
        <mxCell id="rMOjp1tw2oeh-Dq2tg3I-21" value="&lt;h1&gt;Goals of AI?&amp;nbsp;&lt;/h1&gt;&lt;p&gt;&lt;/p&gt;&lt;ol&gt;&lt;li&gt;Replicate human intelligence&lt;/li&gt;&lt;li&gt;Solve Knowledge-intensive tasks&lt;/li&gt;&lt;li&gt;&lt;span style=&quot;background-color: initial;&quot;&gt;An intelligent connection of perception and action&lt;/span&gt;&lt;/li&gt;&lt;li&gt;Building a machine which can perform tasks that requires human intelligence such&amp;nbsp;&lt;/li&gt;&lt;li&gt;as:&lt;/li&gt;&lt;ul&gt;&lt;li&gt;Proving a theorem&lt;/li&gt;&lt;li&gt;Playing chess&lt;/li&gt;&lt;li&gt;Plan some surgical operation&lt;/li&gt;&lt;li&gt;Driving a car in traffic&lt;/li&gt;&lt;/ul&gt;&lt;li&gt;&lt;span style=&quot;background-color: initial;&quot;&gt;Creating some system which can exhibit intelligent behavior, learn new things by itself, demonstrate, explain, and can advise to its user.&lt;/span&gt;&lt;br&gt;&lt;/li&gt;&lt;/ol&gt;&lt;p&gt;&lt;/p&gt;&lt;p&gt;&lt;/p&gt;&lt;p&gt;&lt;span style=&quot;background-color: initial;&quot;&gt;&lt;/span&gt;&lt;/p&gt;" style="text;html=1;strokeColor=none;fillColor=none;spacing=5;spacingTop=-20;whiteSpace=wrap;overflow=hidden;rounded=0;" parent="1" vertex="1">
          <mxGeometry x="9" y="298" width="810" height="210" as="geometry" />
        </mxCell>
        <mxCell id="rMOjp1tw2oeh-Dq2tg3I-22" value="&lt;h1&gt;What Comprises to AI?&amp;nbsp;&lt;/h1&gt;&lt;div&gt;is a combination of Reasoning, learning, problem-solving perception, &lt;br/&gt;language understanding, etc&lt;br&gt;&lt;/div&gt;&lt;div&gt;To achieve the above factors that requires&lt;br&gt;&lt;/div&gt;&lt;div&gt;&lt;div&gt;&lt;ul&gt;&lt;li&gt;Mathematics&lt;/li&gt;&lt;li&gt;Biology&lt;/li&gt;&lt;li&gt;Psychology&lt;/li&gt;&lt;li&gt;Sociology&lt;/li&gt;&lt;li&gt;Computer Science&lt;/li&gt;&lt;li&gt;Neurons Study&lt;/li&gt;&lt;li&gt;Statistics&lt;/li&gt;&lt;/ul&gt;&lt;/div&gt;&lt;/div&gt;&lt;p&gt;&lt;/p&gt;&lt;p&gt;&lt;/p&gt;&lt;p&gt;&lt;span style=&quot;background-color: initial;&quot;&gt;&lt;/span&gt;&lt;/p&gt;" style="text;html=1;strokeColor=none;fillColor=none;spacing=5;spacingTop=-20;whiteSpace=wrap;overflow=hidden;rounded=0;" parent="1" vertex="1">
          <mxGeometry x="9" y="512" width="810" height="210" as="geometry" />
        </mxCell>
        <mxCell id="rMOjp1tw2oeh-Dq2tg3I-23" value="&lt;h1&gt;Advantages of AI?&amp;nbsp;&lt;/h1&gt;&lt;div&gt;&lt;/div&gt;High Accuracy with less errors:&amp;nbsp;it takes decisions as per pre-experience or information.&lt;br&gt;High-Speed:&amp;nbsp;very high-speed and fast-decision making&amp;nbsp;can beat a chess champion in the Chess game.&lt;br&gt;High reliability:&amp;nbsp;can perform the same action multiple times with high accuracy.&lt;br&gt;Useful for risky areas: such as defusing a bomb, exploring the ocean floor.&lt;br&gt;Digital Assistant: used by various E-commerce websites to show the products as per customer requirement.&lt;br&gt;Useful as a public utility:&amp;nbsp;such as a self-driving car, facial recognition for security purpose,&amp;nbsp;NLP to communicate with the human in human-language&lt;br&gt;&lt;p&gt;&lt;/p&gt;&lt;p&gt;&lt;/p&gt;&lt;p&gt;&lt;span style=&quot;background-color: initial;&quot;&gt;&lt;/span&gt;&lt;/p&gt;" style="text;html=1;strokeColor=none;fillColor=none;spacing=5;spacingTop=-20;whiteSpace=wrap;overflow=hidden;rounded=0;" parent="1" vertex="1">
          <mxGeometry x="9" y="726" width="810" height="150" as="geometry" />
        </mxCell>
        <mxCell id="rMOjp1tw2oeh-Dq2tg3I-24" value="&lt;h1&gt;Disadvantages of AI?&amp;nbsp;&lt;/h1&gt;&lt;div&gt;&lt;/div&gt;High Cost:&amp;nbsp;requires lots of maintenance.&lt;br&gt;Can&#39;t think out of the box: such as the robot will only do that work for which they are trained, or programmed.&lt;br&gt;No feelings and emotions:&amp;nbsp;may sometime be harmful for users if the proper care is not taken.&lt;br&gt;Increase dependency on machines: losing their mental capabilities.&lt;br&gt;No Original Creativity: cannot beat this power of human intelligence.&lt;br&gt;&lt;p&gt;&lt;/p&gt;&lt;p&gt;&lt;/p&gt;&lt;p&gt;&lt;span style=&quot;background-color: initial;&quot;&gt;&lt;/span&gt;&lt;/p&gt;" style="text;html=1;strokeColor=none;fillColor=none;spacing=5;spacingTop=-20;whiteSpace=wrap;overflow=hidden;rounded=0;" parent="1" vertex="1">
          <mxGeometry x="9" y="880" width="810" height="130" as="geometry" />
        </mxCell>
        <mxCell id="rMOjp1tw2oeh-Dq2tg3I-25" value="&lt;h1&gt;Types of AI?&amp;nbsp;&lt;/h1&gt;&lt;div&gt;&lt;/div&gt;type-1: Based on Capabilities&lt;br&gt;&lt;ol&gt;&lt;li&gt;Weak-Ai :&amp;nbsp;&lt;/li&gt;&lt;ol&gt;&lt;li&gt;is able to perform a dedicated task&lt;/li&gt;&lt;li&gt;cannot perform beyond its field or limitations -&amp;gt; only trained for one specific task and&amp;nbsp;can fail in unpredictable ways.&lt;br&gt;&lt;/li&gt;&lt;li&gt;EX(Apple Siris, IBM&#39;s Watson supercomputer,  playing chess).&lt;/li&gt;&lt;/ol&gt;&lt;li&gt;General AI:&lt;br&gt;&lt;/li&gt;&lt;ol&gt;&lt;li&gt;can&amp;nbsp;perform any intellectual task with efficiency like a human.&lt;/li&gt;&lt;li&gt;smarter and think like a human.&lt;br&gt;&lt;/li&gt;&lt;li&gt;no such system exist&lt;br&gt;&lt;/li&gt;&lt;li&gt;worldwide researchers are now focused on developing machines with General AI.&lt;br&gt;&lt;/li&gt;&lt;li&gt;General AI Systems still under research, and it will take lots of efforts&amp;nbsp;and time to develop.&lt;br&gt;&lt;/li&gt;&lt;/ol&gt;&lt;li&gt;&amp;nbsp;Super AI:&lt;br&gt;&lt;/li&gt;&lt;ol&gt;&lt;li&gt;is surpass human intelligence, and can perform any task better than human.&lt;/li&gt;&lt;li&gt;include capability include the ability to think, to reason, solve the puzzle, make judgments, plan, learn, and communicate.&lt;br&gt;&lt;/li&gt;&lt;li&gt;Still a hypothetical concept of Artificial Intelligence.&lt;/li&gt;&lt;/ol&gt;&lt;/ol&gt;&lt;div&gt;type-2: Based on functionality&lt;br&gt;&lt;/div&gt;&lt;div&gt;&lt;ol&gt;&lt;li&gt;Reactive Machines&lt;br&gt;&lt;/li&gt;&lt;li&gt;Limited Memory&lt;br&gt;&lt;/li&gt;&lt;li&gt;Theory of Mind&lt;br&gt;&lt;/li&gt;&lt;li&gt;Self-Awareness&lt;br&gt;&lt;/li&gt;&lt;/ol&gt;&lt;/div&gt;&lt;p&gt;&lt;/p&gt;&lt;p&gt;&lt;/p&gt;&lt;p&gt;&lt;span style=&quot;background-color: initial;&quot;&gt;&lt;/span&gt;&lt;/p&gt;" style="text;html=1;strokeColor=none;fillColor=none;spacing=5;spacingTop=-20;whiteSpace=wrap;overflow=hidden;rounded=0;" parent="1" vertex="1">
          <mxGeometry x="9" y="1190" width="810" height="390" as="geometry" />
        </mxCell>
        <mxCell id="6wA9G04rgM6HwwRgKZQ5-1" value="" style="group;flipH=0;fontSize=17;" parent="1" vertex="1" connectable="0">
          <mxGeometry x="863.5" y="85" width="683" height="110" as="geometry" />
        </mxCell>
        <mxCell id="6wA9G04rgM6HwwRgKZQ5-2" value="&lt;font style=&quot;font-size: 11px;&quot;&gt;It is a branch of computer science by which we can create intelligent machines which can behave like a human, think like humans, and able to make decisions.&lt;br&gt;AI means&amp;nbsp;&quot;a man-made thinking power&quot;.&lt;br&gt;&lt;/font&gt;" style="rounded=1;whiteSpace=wrap;html=1;hachureGap=4;fontFamily=Mina;strokeWidth=2;fillColor=#ffcccc;strokeColor=#36393d;fontSize=16;fontStyle=1;labelBorderColor=none;textShadow=0;labelBackgroundColor=none;align=left;spacing=7;verticalAlign=middle;" parent="6wA9G04rgM6HwwRgKZQ5-1" vertex="1">
          <mxGeometry y="40" width="683" height="70" as="geometry" />
        </mxCell>
        <mxCell id="6wA9G04rgM6HwwRgKZQ5-3" value="&lt;div&gt;AI Definition&lt;/div&gt;" style="rounded=1;whiteSpace=wrap;html=1;hachureGap=4;fontFamily=Mina;strokeWidth=2;fillColor=#e51400;strokeColor=#B20000;fontSize=22;fontStyle=1;labelBorderColor=none;textShadow=0;labelBackgroundColor=none;align=center;spacing=5;verticalAlign=middle;spacingTop=3;spacingRight=2;fontColor=#ffffff;" parent="6wA9G04rgM6HwwRgKZQ5-1" vertex="1">
          <mxGeometry x="31.767441860465112" width="270.0232558139535" height="40" as="geometry" />
        </mxCell>
        <mxCell id="6wA9G04rgM6HwwRgKZQ5-12" value="" style="group" parent="1" vertex="1" connectable="0">
          <mxGeometry x="860" y="208" width="684" height="300" as="geometry" />
        </mxCell>
        <mxCell id="6wA9G04rgM6HwwRgKZQ5-8" value="Why AI?" style="rounded=1;whiteSpace=wrap;html=1;sketch=1;hachureGap=4;jiggle=2;curveFitting=1;fontFamily=Architects Daughter;fontSource=https%3A%2F%2Ffonts.googleapis.com%2Fcss%3Ffamily%3DArchitects%2BDaughter;strokeWidth=2;fillColor=#cce5ff;strokeColor=#36393d;fontSize=20;fontStyle=1;labelBorderColor=none;textShadow=0;labelBackgroundColor=none;verticalAlign=bottom;spacingBottom=3;" parent="6wA9G04rgM6HwwRgKZQ5-12" vertex="1">
          <mxGeometry x="21.85303514376997" width="316.8690095846645" height="30" as="geometry" />
        </mxCell>
        <mxCell id="6wA9G04rgM6HwwRgKZQ5-9" value="&lt;div style=&quot;font-size: 15px;&quot;&gt;&lt;font style=&quot;font-size: 15px;&quot; face=&quot;Comic Sans MS&quot; color=&quot;#ff3333&quot;&gt;With the help of AI ?&lt;/font&gt;&lt;/div&gt;&lt;div style=&quot;font-size: 15px;&quot;&gt;&lt;ul&gt;&lt;li&gt;&lt;font style=&quot;font-weight: normal; font-size: 15px;&quot; face=&quot;Comic Sans MS&quot;&gt;you can create such software or devices which can solve real-world problems very easily and with accuracy such as health issues, marketing, traffic issues, etc.&lt;br&gt;&lt;br&gt;&lt;/font&gt;&lt;/li&gt;&lt;li&gt;&lt;font style=&quot;font-weight: normal; font-size: 15px;&quot; face=&quot;Comic Sans MS&quot;&gt;you can create your personal virtual Assistant, such as Cortana, Google Assistant, Siri, etc.&lt;br&gt;&lt;br&gt;&lt;/font&gt;&lt;/li&gt;&lt;li&gt;&lt;font style=&quot;font-weight: normal; font-size: 15px;&quot; face=&quot;Comic Sans MS&quot;&gt;you can build such Robots which can work in an environment where survival of humans can be at risk.&lt;/font&gt;&lt;/li&gt;&lt;/ul&gt;&lt;/div&gt;&lt;div style=&quot;font-size: 15px;&quot;&gt;&lt;font style=&quot;font-weight: normal; font-size: 15px;&quot; face=&quot;Comic Sans MS&quot;&gt;AI opens a path for other new technologies, new devices, and new Opportunities.&lt;/font&gt;&lt;/div&gt;" style="rounded=1;whiteSpace=wrap;html=1;sketch=1;hachureGap=4;jiggle=2;curveFitting=1;fontFamily=Architects Daughter;fontSource=https%3A%2F%2Ffonts.googleapis.com%2Fcss%3Ffamily%3DArchitects%2BDaughter;strokeWidth=2;fillColor=#eeeeee;strokeColor=#36393d;fontSize=16;fontStyle=1;labelBorderColor=none;textShadow=0;labelBackgroundColor=none;align=left;spacing=7;verticalAlign=middle;" parent="6wA9G04rgM6HwwRgKZQ5-12" vertex="1">
          <mxGeometry y="30" width="684" height="270" as="geometry" />
        </mxCell>
        <mxCell id="6wA9G04rgM6HwwRgKZQ5-60" value="" style="group;strokeWidth=2;" parent="1" vertex="1" connectable="0">
          <mxGeometry x="867" y="568" width="670" height="700" as="geometry" />
        </mxCell>
        <mxCell id="6wA9G04rgM6HwwRgKZQ5-61" value="" style="rounded=1;whiteSpace=wrap;html=1;sketch=1;hachureGap=4;jiggle=2;curveFitting=1;fontFamily=Architects Daughter;fontSource=https%3A%2F%2Ffonts.googleapis.com%2Fcss%3Ffamily%3DArchitects%2BDaughter;fillColor=none;arcSize=4;container=0;strokeWidth=2;" parent="6wA9G04rgM6HwwRgKZQ5-60" vertex="1">
          <mxGeometry y="40" width="670" height="630" as="geometry" />
        </mxCell>
        <mxCell id="6wA9G04rgM6HwwRgKZQ5-62" value="&lt;div&gt;Advantages of AI?&amp;nbsp;&lt;/div&gt;" style="rounded=1;whiteSpace=wrap;html=1;sketch=1;hachureGap=4;jiggle=2;curveFitting=1;fontFamily=Architects Daughter;fontSource=https%3A%2F%2Ffonts.googleapis.com%2Fcss%3Ffamily%3DArchitects%2BDaughter;strokeWidth=2;fillColor=#cdeb8b;strokeColor=#36393d;fontSize=23;fontStyle=1;labelBorderColor=none;textShadow=0;labelBackgroundColor=none;arcSize=33;container=0;" parent="6wA9G04rgM6HwwRgKZQ5-60" vertex="1">
          <mxGeometry x="30" width="240" height="40" as="geometry" />
        </mxCell>
        <mxCell id="6wA9G04rgM6HwwRgKZQ5-63" value="High Accuracy with less errors" style="rounded=1;whiteSpace=wrap;html=1;sketch=1;hachureGap=4;jiggle=2;curveFitting=1;fontFamily=Architects Daughter;fontSource=https%3A%2F%2Ffonts.googleapis.com%2Fcss%3Ffamily%3DArchitects%2BDaughter;strokeWidth=2;fillColor=#cce5ff;strokeColor=#36393d;fontSize=20;fontStyle=1;labelBorderColor=none;textShadow=0;labelBackgroundColor=none;verticalAlign=bottom;spacingBottom=3;arcSize=27;container=0;" parent="6wA9G04rgM6HwwRgKZQ5-60" vertex="1">
          <mxGeometry x="61" y="60" width="309" height="30" as="geometry" />
        </mxCell>
        <mxCell id="6wA9G04rgM6HwwRgKZQ5-64" value="1" style="rounded=1;whiteSpace=wrap;html=1;sketch=1;hachureGap=4;jiggle=2;curveFitting=1;fontFamily=Architects Daughter;fontSource=https%3A%2F%2Ffonts.googleapis.com%2Fcss%3Ffamily%3DArchitects%2BDaughter;strokeWidth=2;fillColor=#cdeb8b;strokeColor=#36393d;fontSize=20;fontStyle=1;labelBorderColor=none;textShadow=0;labelBackgroundColor=none;arcSize=43;container=0;" parent="6wA9G04rgM6HwwRgKZQ5-60" vertex="1">
          <mxGeometry x="30" y="60" width="30" height="30" as="geometry" />
        </mxCell>
        <mxCell id="6wA9G04rgM6HwwRgKZQ5-65" value="High-Speed" style="rounded=1;whiteSpace=wrap;html=1;sketch=1;hachureGap=4;jiggle=2;curveFitting=1;fontFamily=Architects Daughter;fontSource=https%3A%2F%2Ffonts.googleapis.com%2Fcss%3Ffamily%3DArchitects%2BDaughter;strokeWidth=2;fillColor=#ffcc99;strokeColor=#36393d;fontSize=20;fontStyle=1;labelBorderColor=none;textShadow=0;labelBackgroundColor=none;container=0;" parent="6wA9G04rgM6HwwRgKZQ5-60" vertex="1">
          <mxGeometry x="61" y="160" width="129" height="30" as="geometry" />
        </mxCell>
        <mxCell id="6wA9G04rgM6HwwRgKZQ5-66" value="2" style="rounded=1;whiteSpace=wrap;html=1;sketch=1;hachureGap=4;jiggle=2;curveFitting=1;fontFamily=Architects Daughter;fontSource=https%3A%2F%2Ffonts.googleapis.com%2Fcss%3Ffamily%3DArchitects%2BDaughter;strokeWidth=2;fillColor=#cdeb8b;strokeColor=#36393d;fontSize=20;fontStyle=1;labelBorderColor=none;textShadow=0;labelBackgroundColor=none;arcSize=43;container=0;" parent="6wA9G04rgM6HwwRgKZQ5-60" vertex="1">
          <mxGeometry x="31" y="160" width="30" height="30" as="geometry" />
        </mxCell>
        <mxCell id="6wA9G04rgM6HwwRgKZQ5-67" value="High reliability" style="rounded=1;whiteSpace=wrap;html=1;sketch=1;hachureGap=4;jiggle=2;curveFitting=1;fontFamily=Architects Daughter;fontSource=https%3A%2F%2Ffonts.googleapis.com%2Fcss%3Ffamily%3DArchitects%2BDaughter;strokeWidth=2;fillColor=#ffff88;strokeColor=#36393d;fontSize=20;fontStyle=1;labelBorderColor=none;textShadow=0;labelBackgroundColor=none;container=0;" parent="6wA9G04rgM6HwwRgKZQ5-60" vertex="1">
          <mxGeometry x="60" y="260" width="150" height="30" as="geometry" />
        </mxCell>
        <mxCell id="6wA9G04rgM6HwwRgKZQ5-68" value="3" style="rounded=1;whiteSpace=wrap;html=1;sketch=1;hachureGap=4;jiggle=2;curveFitting=1;fontFamily=Architects Daughter;fontSource=https%3A%2F%2Ffonts.googleapis.com%2Fcss%3Ffamily%3DArchitects%2BDaughter;strokeWidth=2;fillColor=#cdeb8b;strokeColor=#36393d;fontSize=20;fontStyle=1;labelBorderColor=none;textShadow=0;labelBackgroundColor=none;arcSize=43;container=0;" parent="6wA9G04rgM6HwwRgKZQ5-60" vertex="1">
          <mxGeometry x="30" y="260" width="30" height="30" as="geometry" />
        </mxCell>
        <mxCell id="6wA9G04rgM6HwwRgKZQ5-69" value="Digital Assistant" style="rounded=1;whiteSpace=wrap;html=1;sketch=1;hachureGap=4;jiggle=2;curveFitting=1;fontFamily=Architects Daughter;fontSource=https%3A%2F%2Ffonts.googleapis.com%2Fcss%3Ffamily%3DArchitects%2BDaughter;strokeWidth=2;fillColor=#cce5ff;strokeColor=#36393d;fontSize=20;fontStyle=1;labelBorderColor=none;textShadow=0;labelBackgroundColor=none;container=0;" parent="6wA9G04rgM6HwwRgKZQ5-60" vertex="1">
          <mxGeometry x="60" y="460" width="160" height="30" as="geometry" />
        </mxCell>
        <mxCell id="6wA9G04rgM6HwwRgKZQ5-70" value="5" style="rounded=1;whiteSpace=wrap;html=1;sketch=1;hachureGap=4;jiggle=2;curveFitting=1;fontFamily=Architects Daughter;fontSource=https%3A%2F%2Ffonts.googleapis.com%2Fcss%3Ffamily%3DArchitects%2BDaughter;strokeWidth=2;fillColor=#cdeb8b;strokeColor=#36393d;fontSize=20;fontStyle=1;labelBorderColor=none;textShadow=0;labelBackgroundColor=none;arcSize=43;container=0;" parent="6wA9G04rgM6HwwRgKZQ5-60" vertex="1">
          <mxGeometry x="30" y="460" width="30" height="30" as="geometry" />
        </mxCell>
        <mxCell id="6wA9G04rgM6HwwRgKZQ5-71" value="can perform the same action multiple times with high accuracy." style="rounded=1;whiteSpace=wrap;html=1;sketch=1;hachureGap=4;jiggle=2;curveFitting=1;fontFamily=Architects Daughter;fontSource=https%3A%2F%2Ffonts.googleapis.com%2Fcss%3Ffamily%3DArchitects%2BDaughter;strokeWidth=2;fillColor=#cce5ff;strokeColor=#36393d;fontSize=16;fontStyle=1;labelBorderColor=none;textShadow=0;labelBackgroundColor=none;align=left;spacing=7;verticalAlign=middle;container=0;" parent="6wA9G04rgM6HwwRgKZQ5-60" vertex="1">
          <mxGeometry x="20" y="290" width="630" height="40" as="geometry" />
        </mxCell>
        <mxCell id="6wA9G04rgM6HwwRgKZQ5-72" value="it takes decisions as per pre-experience or information." style="rounded=1;whiteSpace=wrap;html=1;sketch=1;hachureGap=4;jiggle=2;curveFitting=1;fontFamily=Architects Daughter;fontSource=https%3A%2F%2Ffonts.googleapis.com%2Fcss%3Ffamily%3DArchitects%2BDaughter;strokeWidth=2;fillColor=#ffff88;strokeColor=#36393d;fontSize=16;fontStyle=1;labelBorderColor=none;textShadow=0;labelBackgroundColor=none;align=left;spacing=7;verticalAlign=middle;container=0;" parent="6wA9G04rgM6HwwRgKZQ5-60" vertex="1">
          <mxGeometry x="21" y="90" width="630" height="40" as="geometry" />
        </mxCell>
        <mxCell id="6wA9G04rgM6HwwRgKZQ5-73" value="very high-speed and fast-decision making can beat a chess champion in the Chess game." style="rounded=1;whiteSpace=wrap;html=1;sketch=1;hachureGap=4;jiggle=2;curveFitting=1;fontFamily=Architects Daughter;fontSource=https%3A%2F%2Ffonts.googleapis.com%2Fcss%3Ffamily%3DArchitects%2BDaughter;strokeWidth=2;fillColor=#ffcccc;strokeColor=#36393d;fontSize=16;fontStyle=1;labelBorderColor=none;textShadow=0;labelBackgroundColor=none;align=left;spacing=7;verticalAlign=middle;container=0;" parent="6wA9G04rgM6HwwRgKZQ5-60" vertex="1">
          <mxGeometry x="20" y="190" width="630" height="50" as="geometry" />
        </mxCell>
        <mxCell id="6wA9G04rgM6HwwRgKZQ5-74" value="used by various E-commerce websites to show the products as per customer requirement." style="rounded=1;whiteSpace=wrap;html=1;sketch=1;hachureGap=4;jiggle=2;curveFitting=1;fontFamily=Architects Daughter;fontSource=https%3A%2F%2Ffonts.googleapis.com%2Fcss%3Ffamily%3DArchitects%2BDaughter;strokeWidth=2;fillColor=#ffcccc;strokeColor=#36393d;fontSize=16;fontStyle=1;labelBorderColor=none;textShadow=0;labelBackgroundColor=none;align=left;spacing=7;verticalAlign=middle;container=0;" parent="6wA9G04rgM6HwwRgKZQ5-60" vertex="1">
          <mxGeometry x="20" y="490" width="630" height="50" as="geometry" />
        </mxCell>
        <mxCell id="6wA9G04rgM6HwwRgKZQ5-75" value="" style="group" parent="6wA9G04rgM6HwwRgKZQ5-60" vertex="1" connectable="0">
          <mxGeometry x="20" y="360" width="630" height="70" as="geometry" />
        </mxCell>
        <mxCell id="6wA9G04rgM6HwwRgKZQ5-76" value="Useful for risky areas" style="rounded=1;whiteSpace=wrap;html=1;sketch=1;hachureGap=4;jiggle=2;curveFitting=1;fontFamily=Architects Daughter;fontSource=https%3A%2F%2Ffonts.googleapis.com%2Fcss%3Ffamily%3DArchitects%2BDaughter;strokeWidth=2;fillColor=#ffcc99;strokeColor=#36393d;fontSize=20;fontStyle=1;labelBorderColor=none;textShadow=0;labelBackgroundColor=none;container=0;" parent="6wA9G04rgM6HwwRgKZQ5-75" vertex="1">
          <mxGeometry x="41" width="229" height="30" as="geometry" />
        </mxCell>
        <mxCell id="6wA9G04rgM6HwwRgKZQ5-77" value="4" style="rounded=1;whiteSpace=wrap;html=1;sketch=1;hachureGap=4;jiggle=2;curveFitting=1;fontFamily=Architects Daughter;fontSource=https%3A%2F%2Ffonts.googleapis.com%2Fcss%3Ffamily%3DArchitects%2BDaughter;strokeWidth=2;fillColor=#cdeb8b;strokeColor=#36393d;fontSize=20;fontStyle=1;labelBorderColor=none;textShadow=0;labelBackgroundColor=none;arcSize=43;container=0;" parent="6wA9G04rgM6HwwRgKZQ5-75" vertex="1">
          <mxGeometry x="10" width="30" height="30" as="geometry" />
        </mxCell>
        <mxCell id="6wA9G04rgM6HwwRgKZQ5-78" value="such as defusing a bomb, exploring the ocean floor." style="rounded=1;whiteSpace=wrap;html=1;sketch=1;hachureGap=4;jiggle=2;curveFitting=1;fontFamily=Architects Daughter;fontSource=https%3A%2F%2Ffonts.googleapis.com%2Fcss%3Ffamily%3DArchitects%2BDaughter;strokeWidth=2;fillColor=#ffff88;strokeColor=#36393d;fontSize=16;fontStyle=1;labelBorderColor=none;textShadow=0;labelBackgroundColor=none;align=left;spacing=7;verticalAlign=middle;container=0;" parent="6wA9G04rgM6HwwRgKZQ5-75" vertex="1">
          <mxGeometry y="30" width="630" height="40" as="geometry" />
        </mxCell>
        <mxCell id="6wA9G04rgM6HwwRgKZQ5-79" value="" style="group" parent="6wA9G04rgM6HwwRgKZQ5-60" vertex="1" connectable="0">
          <mxGeometry x="20" y="570" width="630" height="80" as="geometry" />
        </mxCell>
        <mxCell id="6wA9G04rgM6HwwRgKZQ5-80" value="Useful as a public utility" style="rounded=1;whiteSpace=wrap;html=1;sketch=1;hachureGap=4;jiggle=2;curveFitting=1;fontFamily=Architects Daughter;fontSource=https%3A%2F%2Ffonts.googleapis.com%2Fcss%3Ffamily%3DArchitects%2BDaughter;strokeWidth=2;fillColor=#cce5ff;strokeColor=#36393d;fontSize=20;fontStyle=1;labelBorderColor=none;textShadow=0;labelBackgroundColor=none;container=0;" parent="6wA9G04rgM6HwwRgKZQ5-79" vertex="1">
          <mxGeometry x="40" width="240" height="30" as="geometry" />
        </mxCell>
        <mxCell id="6wA9G04rgM6HwwRgKZQ5-81" value="6" style="rounded=1;whiteSpace=wrap;html=1;sketch=1;hachureGap=4;jiggle=2;curveFitting=1;fontFamily=Architects Daughter;fontSource=https%3A%2F%2Ffonts.googleapis.com%2Fcss%3Ffamily%3DArchitects%2BDaughter;strokeWidth=2;fillColor=#cdeb8b;strokeColor=#36393d;fontSize=20;fontStyle=1;labelBorderColor=none;textShadow=0;labelBackgroundColor=none;arcSize=43;container=0;" parent="6wA9G04rgM6HwwRgKZQ5-79" vertex="1">
          <mxGeometry x="10" width="30" height="30" as="geometry" />
        </mxCell>
        <mxCell id="6wA9G04rgM6HwwRgKZQ5-82" value="such as a self-driving car, facial recognition for security purpose, NLP to communicate with the human in human-language" style="rounded=1;whiteSpace=wrap;html=1;sketch=1;hachureGap=4;jiggle=2;curveFitting=1;fontFamily=Architects Daughter;fontSource=https%3A%2F%2Ffonts.googleapis.com%2Fcss%3Ffamily%3DArchitects%2BDaughter;strokeWidth=2;fillColor=#ffcccc;strokeColor=#36393d;fontSize=16;fontStyle=1;labelBorderColor=none;textShadow=0;labelBackgroundColor=none;align=left;spacing=7;verticalAlign=middle;container=0;" parent="6wA9G04rgM6HwwRgKZQ5-79" vertex="1">
          <mxGeometry y="30" width="630" height="50" as="geometry" />
        </mxCell>
        <mxCell id="6wA9G04rgM6HwwRgKZQ5-83" value="" style="group" parent="1" vertex="1" connectable="0">
          <mxGeometry x="867" y="1268" width="670" height="550" as="geometry" />
        </mxCell>
        <mxCell id="6wA9G04rgM6HwwRgKZQ5-36" value="" style="rounded=1;whiteSpace=wrap;html=1;sketch=1;hachureGap=4;jiggle=2;curveFitting=1;fontFamily=Architects Daughter;fontSource=https%3A%2F%2Ffonts.googleapis.com%2Fcss%3Ffamily%3DArchitects%2BDaughter;fillColor=none;arcSize=4;container=0;strokeWidth=2;" parent="6wA9G04rgM6HwwRgKZQ5-83" vertex="1">
          <mxGeometry y="40" width="670" height="510" as="geometry" />
        </mxCell>
        <mxCell id="6wA9G04rgM6HwwRgKZQ5-37" value="&lt;div&gt;Disadvantages&amp;nbsp;of AI?&amp;nbsp;&lt;/div&gt;" style="rounded=1;whiteSpace=wrap;html=1;sketch=1;hachureGap=4;jiggle=2;curveFitting=1;fontFamily=Architects Daughter;fontSource=https%3A%2F%2Ffonts.googleapis.com%2Fcss%3Ffamily%3DArchitects%2BDaughter;strokeWidth=2;fillColor=#cdeb8b;strokeColor=#36393d;fontSize=23;fontStyle=1;labelBorderColor=none;textShadow=0;labelBackgroundColor=none;arcSize=33;container=0;" parent="6wA9G04rgM6HwwRgKZQ5-83" vertex="1">
          <mxGeometry x="30" width="250" height="40" as="geometry" />
        </mxCell>
        <mxCell id="6wA9G04rgM6HwwRgKZQ5-38" value="High Cost" style="rounded=1;whiteSpace=wrap;html=1;sketch=1;hachureGap=4;jiggle=2;curveFitting=1;fontFamily=Architects Daughter;fontSource=https%3A%2F%2Ffonts.googleapis.com%2Fcss%3Ffamily%3DArchitects%2BDaughter;strokeWidth=2;fillColor=#cce5ff;strokeColor=#36393d;fontSize=20;fontStyle=1;labelBorderColor=none;textShadow=0;labelBackgroundColor=none;verticalAlign=bottom;spacingBottom=3;arcSize=27;container=0;" parent="6wA9G04rgM6HwwRgKZQ5-83" vertex="1">
          <mxGeometry x="61" y="60" width="119" height="30" as="geometry" />
        </mxCell>
        <mxCell id="6wA9G04rgM6HwwRgKZQ5-39" value="1" style="rounded=1;whiteSpace=wrap;html=1;sketch=1;hachureGap=4;jiggle=2;curveFitting=1;fontFamily=Architects Daughter;fontSource=https%3A%2F%2Ffonts.googleapis.com%2Fcss%3Ffamily%3DArchitects%2BDaughter;strokeWidth=2;fillColor=#cdeb8b;strokeColor=#36393d;fontSize=20;fontStyle=1;labelBorderColor=none;textShadow=0;labelBackgroundColor=none;arcSize=43;container=0;" parent="6wA9G04rgM6HwwRgKZQ5-83" vertex="1">
          <mxGeometry x="30" y="60" width="30" height="30" as="geometry" />
        </mxCell>
        <mxCell id="6wA9G04rgM6HwwRgKZQ5-40" value="Can&#39;t think out of the box" style="rounded=1;whiteSpace=wrap;html=1;sketch=1;hachureGap=4;jiggle=2;curveFitting=1;fontFamily=Architects Daughter;fontSource=https%3A%2F%2Ffonts.googleapis.com%2Fcss%3Ffamily%3DArchitects%2BDaughter;strokeWidth=2;fillColor=#ffcc99;strokeColor=#36393d;fontSize=20;fontStyle=1;labelBorderColor=none;textShadow=0;labelBackgroundColor=none;container=0;" parent="6wA9G04rgM6HwwRgKZQ5-83" vertex="1">
          <mxGeometry x="61" y="160" width="259" height="30" as="geometry" />
        </mxCell>
        <mxCell id="6wA9G04rgM6HwwRgKZQ5-41" value="2" style="rounded=1;whiteSpace=wrap;html=1;sketch=1;hachureGap=4;jiggle=2;curveFitting=1;fontFamily=Architects Daughter;fontSource=https%3A%2F%2Ffonts.googleapis.com%2Fcss%3Ffamily%3DArchitects%2BDaughter;strokeWidth=2;fillColor=#cdeb8b;strokeColor=#36393d;fontSize=20;fontStyle=1;labelBorderColor=none;textShadow=0;labelBackgroundColor=none;arcSize=43;container=0;" parent="6wA9G04rgM6HwwRgKZQ5-83" vertex="1">
          <mxGeometry x="31" y="160" width="30" height="30" as="geometry" />
        </mxCell>
        <mxCell id="6wA9G04rgM6HwwRgKZQ5-42" value="No feelings and emotions" style="rounded=1;whiteSpace=wrap;html=1;sketch=1;hachureGap=4;jiggle=2;curveFitting=1;fontFamily=Architects Daughter;fontSource=https%3A%2F%2Ffonts.googleapis.com%2Fcss%3Ffamily%3DArchitects%2BDaughter;strokeWidth=2;fillColor=#ffff88;strokeColor=#36393d;fontSize=20;fontStyle=1;labelBorderColor=none;textShadow=0;labelBackgroundColor=none;container=0;" parent="6wA9G04rgM6HwwRgKZQ5-83" vertex="1">
          <mxGeometry x="60" y="260" width="240" height="30" as="geometry" />
        </mxCell>
        <mxCell id="6wA9G04rgM6HwwRgKZQ5-43" value="3" style="rounded=1;whiteSpace=wrap;html=1;sketch=1;hachureGap=4;jiggle=2;curveFitting=1;fontFamily=Architects Daughter;fontSource=https%3A%2F%2Ffonts.googleapis.com%2Fcss%3Ffamily%3DArchitects%2BDaughter;strokeWidth=2;fillColor=#cdeb8b;strokeColor=#36393d;fontSize=20;fontStyle=1;labelBorderColor=none;textShadow=0;labelBackgroundColor=none;arcSize=43;container=0;" parent="6wA9G04rgM6HwwRgKZQ5-83" vertex="1">
          <mxGeometry x="30" y="260" width="30" height="30" as="geometry" />
        </mxCell>
        <mxCell id="6wA9G04rgM6HwwRgKZQ5-44" value="No Original Creativity." style="rounded=1;whiteSpace=wrap;html=1;sketch=1;hachureGap=4;jiggle=2;curveFitting=1;fontFamily=Architects Daughter;fontSource=https%3A%2F%2Ffonts.googleapis.com%2Fcss%3Ffamily%3DArchitects%2BDaughter;strokeWidth=2;fillColor=#cce5ff;strokeColor=#36393d;fontSize=20;fontStyle=1;labelBorderColor=none;textShadow=0;labelBackgroundColor=none;container=0;" parent="6wA9G04rgM6HwwRgKZQ5-83" vertex="1">
          <mxGeometry x="60" y="460" width="210" height="30" as="geometry" />
        </mxCell>
        <mxCell id="6wA9G04rgM6HwwRgKZQ5-45" value="5" style="rounded=1;whiteSpace=wrap;html=1;sketch=1;hachureGap=4;jiggle=2;curveFitting=1;fontFamily=Architects Daughter;fontSource=https%3A%2F%2Ffonts.googleapis.com%2Fcss%3Ffamily%3DArchitects%2BDaughter;strokeWidth=2;fillColor=#cdeb8b;strokeColor=#36393d;fontSize=20;fontStyle=1;labelBorderColor=none;textShadow=0;labelBackgroundColor=none;arcSize=43;container=0;" parent="6wA9G04rgM6HwwRgKZQ5-83" vertex="1">
          <mxGeometry x="30" y="460" width="30" height="30" as="geometry" />
        </mxCell>
        <mxCell id="6wA9G04rgM6HwwRgKZQ5-46" value="may sometime be harmful for users if the proper care is not taken." style="rounded=1;whiteSpace=wrap;html=1;sketch=1;hachureGap=4;jiggle=2;curveFitting=1;fontFamily=Architects Daughter;fontSource=https%3A%2F%2Ffonts.googleapis.com%2Fcss%3Ffamily%3DArchitects%2BDaughter;strokeWidth=2;fillColor=#cce5ff;strokeColor=#36393d;fontSize=16;fontStyle=1;labelBorderColor=none;textShadow=0;labelBackgroundColor=none;align=left;spacing=7;verticalAlign=middle;container=0;" parent="6wA9G04rgM6HwwRgKZQ5-83" vertex="1">
          <mxGeometry x="20" y="290" width="630" height="40" as="geometry" />
        </mxCell>
        <mxCell id="6wA9G04rgM6HwwRgKZQ5-47" value="requires lots of maintenance." style="rounded=1;whiteSpace=wrap;html=1;sketch=1;hachureGap=4;jiggle=2;curveFitting=1;fontFamily=Architects Daughter;fontSource=https%3A%2F%2Ffonts.googleapis.com%2Fcss%3Ffamily%3DArchitects%2BDaughter;strokeWidth=2;fillColor=#ffff88;strokeColor=#36393d;fontSize=16;fontStyle=1;labelBorderColor=none;textShadow=0;labelBackgroundColor=none;align=left;spacing=7;verticalAlign=middle;container=0;" parent="6wA9G04rgM6HwwRgKZQ5-83" vertex="1">
          <mxGeometry x="21" y="90" width="630" height="40" as="geometry" />
        </mxCell>
        <mxCell id="6wA9G04rgM6HwwRgKZQ5-48" value="such as the robot will only do that work for which they are trained, or programmed." style="rounded=1;whiteSpace=wrap;html=1;sketch=1;hachureGap=4;jiggle=2;curveFitting=1;fontFamily=Architects Daughter;fontSource=https%3A%2F%2Ffonts.googleapis.com%2Fcss%3Ffamily%3DArchitects%2BDaughter;strokeWidth=2;fillColor=#ffcccc;strokeColor=#36393d;fontSize=16;fontStyle=1;labelBorderColor=none;textShadow=0;labelBackgroundColor=none;align=left;spacing=7;verticalAlign=middle;container=0;" parent="6wA9G04rgM6HwwRgKZQ5-83" vertex="1">
          <mxGeometry x="20" y="190" width="630" height="50" as="geometry" />
        </mxCell>
        <mxCell id="6wA9G04rgM6HwwRgKZQ5-49" value="cannot beat this power of human intelligence" style="rounded=1;whiteSpace=wrap;html=1;sketch=1;hachureGap=4;jiggle=2;curveFitting=1;fontFamily=Architects Daughter;fontSource=https%3A%2F%2Ffonts.googleapis.com%2Fcss%3Ffamily%3DArchitects%2BDaughter;strokeWidth=2;fillColor=#ffcccc;strokeColor=#36393d;fontSize=16;fontStyle=1;labelBorderColor=none;textShadow=0;labelBackgroundColor=none;align=left;spacing=7;verticalAlign=middle;container=0;" parent="6wA9G04rgM6HwwRgKZQ5-83" vertex="1">
          <mxGeometry x="20" y="490" width="630" height="40" as="geometry" />
        </mxCell>
        <mxCell id="6wA9G04rgM6HwwRgKZQ5-50" value="" style="group" parent="6wA9G04rgM6HwwRgKZQ5-83" vertex="1" connectable="0">
          <mxGeometry x="20" y="360" width="630" height="70" as="geometry" />
        </mxCell>
        <mxCell id="6wA9G04rgM6HwwRgKZQ5-51" value="Increase dependency on machines" style="rounded=1;whiteSpace=wrap;html=1;sketch=1;hachureGap=4;jiggle=2;curveFitting=1;fontFamily=Architects Daughter;fontSource=https%3A%2F%2Ffonts.googleapis.com%2Fcss%3Ffamily%3DArchitects%2BDaughter;strokeWidth=2;fillColor=#ffcc99;strokeColor=#36393d;fontSize=20;fontStyle=1;labelBorderColor=none;textShadow=0;labelBackgroundColor=none;container=0;" parent="6wA9G04rgM6HwwRgKZQ5-50" vertex="1">
          <mxGeometry x="41" width="329" height="30" as="geometry" />
        </mxCell>
        <mxCell id="6wA9G04rgM6HwwRgKZQ5-52" value="4" style="rounded=1;whiteSpace=wrap;html=1;sketch=1;hachureGap=4;jiggle=2;curveFitting=1;fontFamily=Architects Daughter;fontSource=https%3A%2F%2Ffonts.googleapis.com%2Fcss%3Ffamily%3DArchitects%2BDaughter;strokeWidth=2;fillColor=#cdeb8b;strokeColor=#36393d;fontSize=20;fontStyle=1;labelBorderColor=none;textShadow=0;labelBackgroundColor=none;arcSize=43;container=0;" parent="6wA9G04rgM6HwwRgKZQ5-50" vertex="1">
          <mxGeometry x="10" width="30" height="30" as="geometry" />
        </mxCell>
        <mxCell id="6wA9G04rgM6HwwRgKZQ5-53" value="losing their mental capabilities." style="rounded=1;whiteSpace=wrap;html=1;sketch=1;hachureGap=4;jiggle=2;curveFitting=1;fontFamily=Architects Daughter;fontSource=https%3A%2F%2Ffonts.googleapis.com%2Fcss%3Ffamily%3DArchitects%2BDaughter;strokeWidth=2;fillColor=#ffff88;strokeColor=#36393d;fontSize=16;fontStyle=1;labelBorderColor=none;textShadow=0;labelBackgroundColor=none;align=left;spacing=7;verticalAlign=middle;container=0;" parent="6wA9G04rgM6HwwRgKZQ5-50" vertex="1">
          <mxGeometry y="30" width="630" height="40" as="geometry" />
        </mxCell>
        <mxCell id="6wA9G04rgM6HwwRgKZQ5-160" style="edgeStyle=orthogonalEdgeStyle;rounded=0;orthogonalLoop=1;jettySize=auto;html=1;entryX=0;entryY=0.5;entryDx=0;entryDy=0;" parent="1" source="6wA9G04rgM6HwwRgKZQ5-99" target="6wA9G04rgM6HwwRgKZQ5-123" edge="1">
          <mxGeometry relative="1" as="geometry">
            <Array as="points">
              <mxPoint x="882" y="2454" />
            </Array>
          </mxGeometry>
        </mxCell>
        <mxCell id="6wA9G04rgM6HwwRgKZQ5-161" style="edgeStyle=orthogonalEdgeStyle;rounded=0;orthogonalLoop=1;jettySize=auto;html=1;entryX=0;entryY=0.5;entryDx=0;entryDy=0;" parent="1" source="6wA9G04rgM6HwwRgKZQ5-99" target="6wA9G04rgM6HwwRgKZQ5-102" edge="1">
          <mxGeometry relative="1" as="geometry">
            <Array as="points">
              <mxPoint x="882" y="2842" />
            </Array>
          </mxGeometry>
        </mxCell>
        <mxCell id="6wA9G04rgM6HwwRgKZQ5-99" value="Types of AI" style="rounded=1;whiteSpace=wrap;html=1;fillColor=#eeeeee;strokeColor=#36393d;" parent="1" vertex="1">
          <mxGeometry x="830" y="2645" width="120" height="30" as="geometry" />
        </mxCell>
        <mxCell id="6wA9G04rgM6HwwRgKZQ5-119" style="edgeStyle=orthogonalEdgeStyle;rounded=0;orthogonalLoop=1;jettySize=auto;html=1;" parent="1" source="6wA9G04rgM6HwwRgKZQ5-102" target="6wA9G04rgM6HwwRgKZQ5-111" edge="1">
          <mxGeometry relative="1" as="geometry">
            <Array as="points">
              <mxPoint x="1181" y="2843" />
              <mxPoint x="1181" y="2783" />
            </Array>
          </mxGeometry>
        </mxCell>
        <mxCell id="6wA9G04rgM6HwwRgKZQ5-120" style="edgeStyle=orthogonalEdgeStyle;rounded=0;orthogonalLoop=1;jettySize=auto;html=1;" parent="1" source="6wA9G04rgM6HwwRgKZQ5-102" target="6wA9G04rgM6HwwRgKZQ5-117" edge="1">
          <mxGeometry relative="1" as="geometry">
            <Array as="points">
              <mxPoint x="1181" y="2843" />
              <mxPoint x="1181" y="2897" />
            </Array>
          </mxGeometry>
        </mxCell>
        <mxCell id="6wA9G04rgM6HwwRgKZQ5-122" style="edgeStyle=orthogonalEdgeStyle;rounded=0;orthogonalLoop=1;jettySize=auto;html=1;" parent="1" source="6wA9G04rgM6HwwRgKZQ5-102" target="6wA9G04rgM6HwwRgKZQ5-116" edge="1">
          <mxGeometry relative="1" as="geometry">
            <Array as="points">
              <mxPoint x="1181" y="2843" />
              <mxPoint x="1181" y="2862" />
            </Array>
          </mxGeometry>
        </mxCell>
        <mxCell id="6wA9G04rgM6HwwRgKZQ5-102" value="Based on&amp;nbsp;Functionality" style="rounded=1;whiteSpace=wrap;html=1;fillColor=#ffff88;strokeColor=#36393d;" parent="1" vertex="1">
          <mxGeometry x="902" y="2827" width="149.44" height="30" as="geometry" />
        </mxCell>
        <mxCell id="6wA9G04rgM6HwwRgKZQ5-118" value="" style="group" parent="1" vertex="1" connectable="0">
          <mxGeometry x="1222" y="2767" width="149.43999999999994" height="150" as="geometry" />
        </mxCell>
        <mxCell id="6wA9G04rgM6HwwRgKZQ5-111" value="&lt;div&gt;Reactive Machines&lt;/div&gt;" style="rounded=1;whiteSpace=wrap;html=1;fillColor=#cce5ff;strokeColor=#36393d;fontFamily=https://fonts.google.com/specimen/Cairo;fontSource=https%3A%2F%2Ffonts.googleapis.com%2Fcss%3Ffamily%3Dhttps%253A%252F%252Ffonts.google.com%252Fspecimen%252FCairo;" parent="6wA9G04rgM6HwwRgKZQ5-118" vertex="1">
          <mxGeometry width="149.44" height="30" as="geometry" />
        </mxCell>
        <mxCell id="6wA9G04rgM6HwwRgKZQ5-115" value="Limited Memory" style="rounded=1;whiteSpace=wrap;html=1;fillColor=#cce5ff;strokeColor=#36393d;fontFamily=https://fonts.google.com/specimen/Cairo;fontSource=https%3A%2F%2Ffonts.googleapis.com%2Fcss%3Ffamily%3Dhttps%253A%252F%252Ffonts.google.com%252Fspecimen%252FCairo;" parent="6wA9G04rgM6HwwRgKZQ5-118" vertex="1">
          <mxGeometry y="40" width="149.44" height="30" as="geometry" />
        </mxCell>
        <mxCell id="6wA9G04rgM6HwwRgKZQ5-116" value="Theory of Mind" style="rounded=1;whiteSpace=wrap;html=1;fillColor=#cce5ff;strokeColor=#36393d;fontFamily=https://fonts.google.com/specimen/Cairo;fontSource=https%3A%2F%2Ffonts.googleapis.com%2Fcss%3Ffamily%3Dhttps%253A%252F%252Ffonts.google.com%252Fspecimen%252FCairo;" parent="6wA9G04rgM6HwwRgKZQ5-118" vertex="1">
          <mxGeometry y="80" width="149.44" height="30" as="geometry" />
        </mxCell>
        <mxCell id="6wA9G04rgM6HwwRgKZQ5-117" value="Self-Awareness" style="rounded=1;whiteSpace=wrap;html=1;fillColor=#cce5ff;strokeColor=#36393d;fontFamily=https://fonts.google.com/specimen/Cairo;fontSource=https%3A%2F%2Ffonts.googleapis.com%2Fcss%3Ffamily%3Dhttps%253A%252F%252Ffonts.google.com%252Fspecimen%252FCairo;" parent="6wA9G04rgM6HwwRgKZQ5-118" vertex="1">
          <mxGeometry y="120" width="149.44" height="30" as="geometry" />
        </mxCell>
        <mxCell id="6wA9G04rgM6HwwRgKZQ5-121" style="edgeStyle=orthogonalEdgeStyle;rounded=0;orthogonalLoop=1;jettySize=auto;html=1;" parent="1" source="6wA9G04rgM6HwwRgKZQ5-102" target="6wA9G04rgM6HwwRgKZQ5-115" edge="1">
          <mxGeometry relative="1" as="geometry">
            <Array as="points">
              <mxPoint x="1181" y="2843" />
              <mxPoint x="1181" y="2821" />
            </Array>
          </mxGeometry>
        </mxCell>
        <mxCell id="6wA9G04rgM6HwwRgKZQ5-127" style="edgeStyle=orthogonalEdgeStyle;rounded=0;orthogonalLoop=1;jettySize=auto;html=1;exitX=0.994;exitY=0.684;exitDx=0;exitDy=0;exitPerimeter=0;" parent="1" source="6wA9G04rgM6HwwRgKZQ5-123" target="6wA9G04rgM6HwwRgKZQ5-124" edge="1">
          <mxGeometry relative="1" as="geometry">
            <mxPoint x="1050.44" y="2469" as="sourcePoint" />
            <mxPoint x="1108" y="2267" as="targetPoint" />
            <Array as="points">
              <mxPoint x="1050" y="2458" />
              <mxPoint x="1078" y="2458" />
              <mxPoint x="1078" y="2270" />
            </Array>
          </mxGeometry>
        </mxCell>
        <mxCell id="6wA9G04rgM6HwwRgKZQ5-128" style="edgeStyle=orthogonalEdgeStyle;rounded=0;orthogonalLoop=1;jettySize=auto;html=1;" parent="1" source="6wA9G04rgM6HwwRgKZQ5-123" target="6wA9G04rgM6HwwRgKZQ5-125" edge="1">
          <mxGeometry relative="1" as="geometry">
            <Array as="points">
              <mxPoint x="1103" y="2458" />
              <mxPoint x="1103" y="2458" />
            </Array>
          </mxGeometry>
        </mxCell>
        <mxCell id="6wA9G04rgM6HwwRgKZQ5-129" style="edgeStyle=orthogonalEdgeStyle;rounded=0;orthogonalLoop=1;jettySize=auto;html=1;" parent="1" source="6wA9G04rgM6HwwRgKZQ5-123" target="6wA9G04rgM6HwwRgKZQ5-126" edge="1">
          <mxGeometry relative="1" as="geometry">
            <Array as="points">
              <mxPoint x="1078" y="2458" />
              <mxPoint x="1078" y="2645" />
            </Array>
          </mxGeometry>
        </mxCell>
        <mxCell id="6wA9G04rgM6HwwRgKZQ5-123" value="Based on Capabilities" style="rounded=1;whiteSpace=wrap;html=1;fillColor=#ffff88;strokeColor=#36393d;" parent="1" vertex="1">
          <mxGeometry x="902" y="2439" width="149.44" height="30" as="geometry" />
        </mxCell>
        <mxCell id="6wA9G04rgM6HwwRgKZQ5-135" style="edgeStyle=orthogonalEdgeStyle;rounded=0;orthogonalLoop=1;jettySize=auto;html=1;" parent="1" source="6wA9G04rgM6HwwRgKZQ5-124" target="6wA9G04rgM6HwwRgKZQ5-131" edge="1">
          <mxGeometry relative="1" as="geometry">
            <Array as="points">
              <mxPoint x="1130" y="2270" />
              <mxPoint x="1280" y="2270" />
              <mxPoint x="1280" y="2226" />
            </Array>
          </mxGeometry>
        </mxCell>
        <mxCell id="6wA9G04rgM6HwwRgKZQ5-136" style="edgeStyle=orthogonalEdgeStyle;rounded=0;orthogonalLoop=1;jettySize=auto;html=1;" parent="1" source="6wA9G04rgM6HwwRgKZQ5-124" target="6wA9G04rgM6HwwRgKZQ5-132" edge="1">
          <mxGeometry relative="1" as="geometry">
            <Array as="points">
              <mxPoint x="1130" y="2270" />
            </Array>
          </mxGeometry>
        </mxCell>
        <mxCell id="6wA9G04rgM6HwwRgKZQ5-137" style="edgeStyle=orthogonalEdgeStyle;rounded=0;orthogonalLoop=1;jettySize=auto;html=1;exitX=1;exitY=0.5;exitDx=0;exitDy=0;" parent="1" source="6wA9G04rgM6HwwRgKZQ5-124" target="6wA9G04rgM6HwwRgKZQ5-134" edge="1">
          <mxGeometry relative="1" as="geometry">
            <Array as="points">
              <mxPoint x="1280" y="2270" />
              <mxPoint x="1280" y="2315" />
            </Array>
          </mxGeometry>
        </mxCell>
        <mxCell id="6wA9G04rgM6HwwRgKZQ5-124" value="Weak AI" style="rounded=1;whiteSpace=wrap;html=1;fillColor=#ffcc99;strokeColor=#36393d;fontFamily=https://fonts.google.com/specimen/Cairo;fontSource=https%3A%2F%2Ffonts.googleapis.com%2Fcss%3Ffamily%3Dhttps%253A%252F%252Ffonts.google.com%252Fspecimen%252FCairo;" parent="1" vertex="1">
          <mxGeometry x="1109" y="2255" width="149.44" height="30" as="geometry" />
        </mxCell>
        <mxCell id="6wA9G04rgM6HwwRgKZQ5-147" style="edgeStyle=orthogonalEdgeStyle;rounded=0;orthogonalLoop=1;jettySize=auto;html=1;" parent="1" source="6wA9G04rgM6HwwRgKZQ5-125" target="6wA9G04rgM6HwwRgKZQ5-142" edge="1">
          <mxGeometry relative="1" as="geometry">
            <Array as="points">
              <mxPoint x="1279" y="2458" />
              <mxPoint x="1279" y="2367" />
            </Array>
          </mxGeometry>
        </mxCell>
        <mxCell id="6wA9G04rgM6HwwRgKZQ5-148" style="edgeStyle=orthogonalEdgeStyle;rounded=0;orthogonalLoop=1;jettySize=auto;html=1;" parent="1" source="6wA9G04rgM6HwwRgKZQ5-125" target="6wA9G04rgM6HwwRgKZQ5-143" edge="1">
          <mxGeometry relative="1" as="geometry">
            <Array as="points">
              <mxPoint x="1279" y="2458" />
              <mxPoint x="1279" y="2412" />
            </Array>
          </mxGeometry>
        </mxCell>
        <mxCell id="6wA9G04rgM6HwwRgKZQ5-149" style="edgeStyle=orthogonalEdgeStyle;rounded=0;orthogonalLoop=1;jettySize=auto;html=1;" parent="1" source="6wA9G04rgM6HwwRgKZQ5-125" target="6wA9G04rgM6HwwRgKZQ5-144" edge="1">
          <mxGeometry relative="1" as="geometry">
            <Array as="points">
              <mxPoint x="1301" y="2458" />
              <mxPoint x="1301" y="2458" />
            </Array>
          </mxGeometry>
        </mxCell>
        <mxCell id="6wA9G04rgM6HwwRgKZQ5-150" style="edgeStyle=orthogonalEdgeStyle;rounded=0;orthogonalLoop=1;jettySize=auto;html=1;" parent="1" source="6wA9G04rgM6HwwRgKZQ5-125" target="6wA9G04rgM6HwwRgKZQ5-145" edge="1">
          <mxGeometry relative="1" as="geometry">
            <Array as="points">
              <mxPoint x="1279" y="2458" />
              <mxPoint x="1279" y="2504" />
            </Array>
          </mxGeometry>
        </mxCell>
        <mxCell id="6wA9G04rgM6HwwRgKZQ5-151" style="edgeStyle=orthogonalEdgeStyle;rounded=0;orthogonalLoop=1;jettySize=auto;html=1;" parent="1" source="6wA9G04rgM6HwwRgKZQ5-125" target="6wA9G04rgM6HwwRgKZQ5-146" edge="1">
          <mxGeometry relative="1" as="geometry">
            <Array as="points">
              <mxPoint x="1279" y="2458" />
              <mxPoint x="1279" y="2551" />
            </Array>
          </mxGeometry>
        </mxCell>
        <mxCell id="6wA9G04rgM6HwwRgKZQ5-125" value="General AI" style="rounded=1;whiteSpace=wrap;html=1;fillColor=#ffcc99;strokeColor=#36393d;fontFamily=https://fonts.google.com/specimen/Cairo;fontSource=https%3A%2F%2Ffonts.googleapis.com%2Fcss%3Ffamily%3Dhttps%253A%252F%252Ffonts.google.com%252Fspecimen%252FCairo;" parent="1" vertex="1">
          <mxGeometry x="1108" y="2439" width="149.44" height="30" as="geometry" />
        </mxCell>
        <mxCell id="6wA9G04rgM6HwwRgKZQ5-157" style="edgeStyle=orthogonalEdgeStyle;rounded=0;orthogonalLoop=1;jettySize=auto;html=1;" parent="1" source="6wA9G04rgM6HwwRgKZQ5-126" target="6wA9G04rgM6HwwRgKZQ5-152" edge="1">
          <mxGeometry relative="1" as="geometry">
            <Array as="points">
              <mxPoint x="1281" y="2644" />
              <mxPoint x="1281" y="2597" />
            </Array>
          </mxGeometry>
        </mxCell>
        <mxCell id="6wA9G04rgM6HwwRgKZQ5-158" style="edgeStyle=orthogonalEdgeStyle;rounded=0;orthogonalLoop=1;jettySize=auto;html=1;" parent="1" source="6wA9G04rgM6HwwRgKZQ5-126" target="6wA9G04rgM6HwwRgKZQ5-153" edge="1">
          <mxGeometry relative="1" as="geometry">
            <Array as="points">
              <mxPoint x="1281" y="2644" />
              <mxPoint x="1281" y="2646" />
            </Array>
          </mxGeometry>
        </mxCell>
        <mxCell id="6wA9G04rgM6HwwRgKZQ5-159" style="edgeStyle=orthogonalEdgeStyle;rounded=0;orthogonalLoop=1;jettySize=auto;html=1;" parent="1" source="6wA9G04rgM6HwwRgKZQ5-126" target="6wA9G04rgM6HwwRgKZQ5-154" edge="1">
          <mxGeometry relative="1" as="geometry">
            <Array as="points">
              <mxPoint x="1281" y="2644" />
              <mxPoint x="1281" y="2693" />
            </Array>
          </mxGeometry>
        </mxCell>
        <mxCell id="6wA9G04rgM6HwwRgKZQ5-126" value="Super&amp;nbsp;AI" style="rounded=1;whiteSpace=wrap;html=1;fillColor=#ffcc99;strokeColor=#36393d;fontFamily=https://fonts.google.com/specimen/Cairo;fontSource=https%3A%2F%2Ffonts.googleapis.com%2Fcss%3Ffamily%3Dhttps%253A%252F%252Ffonts.google.com%252Fspecimen%252FCairo;" parent="1" vertex="1">
          <mxGeometry x="1108" y="2629" width="149.44" height="30" as="geometry" />
        </mxCell>
        <mxCell id="6wA9G04rgM6HwwRgKZQ5-131" value="is able to perform a dedicated task" style="rounded=1;whiteSpace=wrap;html=1;fillColor=#cce5ff;strokeColor=#36393d;fontFamily=https://fonts.google.com/specimen/Cairo;fontSource=https%3A%2F%2Ffonts.googleapis.com%2Fcss%3Ffamily%3Dhttps%253A%252F%252Ffonts.google.com%252Fspecimen%252FCairo;align=center;" parent="1" vertex="1">
          <mxGeometry x="1302" y="2211" width="200" height="30" as="geometry" />
        </mxCell>
        <mxCell id="6wA9G04rgM6HwwRgKZQ5-132" value="&lt;font style=&quot;font-size: 11px;&quot;&gt;&amp;nbsp; cannot perform beyond its field or limitations&amp;nbsp;-&amp;gt; &lt;br&gt;&amp;nbsp; only trained for one specific task and can fail in unpredictable ways.&lt;/font&gt;" style="rounded=1;whiteSpace=wrap;html=1;fillColor=#cce5ff;strokeColor=#36393d;fontFamily=https://fonts.google.com/specimen/Cairo;fontSource=https%3A%2F%2Ffonts.googleapis.com%2Fcss%3Ffamily%3Dhttps%253A%252F%252Ffonts.google.com%252Fspecimen%252FCairo;align=left;" parent="1" vertex="1">
          <mxGeometry x="1302" y="2249" width="338" height="40" as="geometry" />
        </mxCell>
        <mxCell id="6wA9G04rgM6HwwRgKZQ5-134" value="&lt;font color=&quot;#ff3333&quot;&gt;EX&lt;/font&gt;(Apple Siris, IBM&#39;s Watson supercomputer, playing chess)." style="rounded=1;whiteSpace=wrap;html=1;fillColor=#cce5ff;strokeColor=#36393d;fontFamily=https://fonts.google.com/specimen/Cairo;fontSource=https%3A%2F%2Ffonts.googleapis.com%2Fcss%3Ffamily%3Dhttps%253A%252F%252Ffonts.google.com%252Fspecimen%252FCairo;align=center;" parent="1" vertex="1">
          <mxGeometry x="1302" y="2299" width="330" height="30" as="geometry" />
        </mxCell>
        <mxCell id="6wA9G04rgM6HwwRgKZQ5-142" value="&lt;div&gt;can perform any intellectual task with efficiency like a human.&lt;/div&gt;" style="rounded=1;whiteSpace=wrap;html=1;fillColor=#cce5ff;strokeColor=#36393d;fontFamily=https://fonts.google.com/specimen/Cairo;fontSource=https%3A%2F%2Ffonts.googleapis.com%2Fcss%3Ffamily%3Dhttps%253A%252F%252Ffonts.google.com%252Fspecimen%252FCairo;align=center;" parent="1" vertex="1">
          <mxGeometry x="1302" y="2353" width="332" height="30" as="geometry" />
        </mxCell>
        <mxCell id="6wA9G04rgM6HwwRgKZQ5-143" value="&lt;div&gt;Smarter and think like a human.&lt;/div&gt;" style="rounded=1;whiteSpace=wrap;html=1;fillColor=#cce5ff;strokeColor=#36393d;fontFamily=https://fonts.google.com/specimen/Cairo;fontSource=https%3A%2F%2Ffonts.googleapis.com%2Fcss%3Ffamily%3Dhttps%253A%252F%252Ffonts.google.com%252Fspecimen%252FCairo;align=center;" parent="1" vertex="1">
          <mxGeometry x="1302" y="2400" width="175" height="30" as="geometry" />
        </mxCell>
        <mxCell id="6wA9G04rgM6HwwRgKZQ5-144" value="&lt;div&gt;No such system exist&lt;/div&gt;" style="rounded=1;whiteSpace=wrap;html=1;fillColor=#cce5ff;strokeColor=#36393d;fontFamily=https://fonts.google.com/specimen/Cairo;fontSource=https%3A%2F%2Ffonts.googleapis.com%2Fcss%3Ffamily%3Dhttps%253A%252F%252Ffonts.google.com%252Fspecimen%252FCairo;align=center;" parent="1" vertex="1">
          <mxGeometry x="1302" y="2446" width="118" height="30" as="geometry" />
        </mxCell>
        <mxCell id="6wA9G04rgM6HwwRgKZQ5-145" value="&lt;div&gt;Worldwide researchers are now focused on developing machines with General AI.&lt;/div&gt;" style="rounded=1;whiteSpace=wrap;html=1;fillColor=#cce5ff;strokeColor=#36393d;fontFamily=https://fonts.google.com/specimen/Cairo;fontSource=https%3A%2F%2Ffonts.googleapis.com%2Fcss%3Ffamily%3Dhttps%253A%252F%252Ffonts.google.com%252Fspecimen%252FCairo;align=center;" parent="1" vertex="1">
          <mxGeometry x="1302" y="2489" width="348" height="32" as="geometry" />
        </mxCell>
        <mxCell id="6wA9G04rgM6HwwRgKZQ5-146" value="&lt;div&gt;General AI Systems still under research, and it will take lots of efforts and time to develop.&lt;/div&gt;" style="rounded=1;whiteSpace=wrap;html=1;fillColor=#cce5ff;strokeColor=#36393d;fontFamily=https://fonts.google.com/specimen/Cairo;fontSource=https%3A%2F%2Ffonts.googleapis.com%2Fcss%3Ffamily%3Dhttps%253A%252F%252Ffonts.google.com%252Fspecimen%252FCairo;align=center;" parent="1" vertex="1">
          <mxGeometry x="1302" y="2535" width="330" height="34" as="geometry" />
        </mxCell>
        <mxCell id="6wA9G04rgM6HwwRgKZQ5-152" value="&lt;div&gt;Is surpass human intelligence, and can perform any task better than human.&lt;/div&gt;" style="rounded=1;whiteSpace=wrap;html=1;fillColor=#cce5ff;strokeColor=#36393d;fontFamily=https://fonts.google.com/specimen/Cairo;fontSource=https%3A%2F%2Ffonts.googleapis.com%2Fcss%3Ffamily%3Dhttps%253A%252F%252Ffonts.google.com%252Fspecimen%252FCairo;align=center;" parent="1" vertex="1">
          <mxGeometry x="1302" y="2581" width="337" height="32.5" as="geometry" />
        </mxCell>
        <mxCell id="6wA9G04rgM6HwwRgKZQ5-153" value="&lt;div&gt;Include capability include the ability to think, to reason, solve the puzzle, make judgments, plan, learn, and communicate.&lt;/div&gt;" style="rounded=1;whiteSpace=wrap;html=1;fillColor=#cce5ff;strokeColor=#36393d;fontFamily=https://fonts.google.com/specimen/Cairo;fontSource=https%3A%2F%2Ffonts.googleapis.com%2Fcss%3Ffamily%3Dhttps%253A%252F%252Ffonts.google.com%252Fspecimen%252FCairo;align=center;" parent="1" vertex="1">
          <mxGeometry x="1302" y="2622.75" width="349" height="42.5" as="geometry" />
        </mxCell>
        <mxCell id="6wA9G04rgM6HwwRgKZQ5-154" value="&lt;div&gt;Still a hypothetical concept of Artificial Intelligence.&lt;/div&gt;" style="rounded=1;whiteSpace=wrap;html=1;fillColor=#cce5ff;strokeColor=#36393d;fontFamily=https://fonts.google.com/specimen/Cairo;fontSource=https%3A%2F%2Ffonts.googleapis.com%2Fcss%3Ffamily%3Dhttps%253A%252F%252Ffonts.google.com%252Fspecimen%252FCairo;align=center;" parent="1" vertex="1">
          <mxGeometry x="1302" y="2679" width="280" height="30" as="geometry" />
        </mxCell>
        <mxCell id="6wA9G04rgM6HwwRgKZQ5-176" value="" style="group" parent="1" vertex="1" connectable="0">
          <mxGeometry x="879" y="3012" width="534" height="275" as="geometry" />
        </mxCell>
        <mxCell id="6wA9G04rgM6HwwRgKZQ5-165" value="&lt;div&gt;&lt;b&gt;Goals of AI?&amp;nbsp;&lt;/b&gt;&lt;/div&gt;" style="rounded=1;whiteSpace=wrap;html=1;fillColor=#ffcc99;strokeColor=#36393d;fontFamily=https://fonts.google.com/specimen/Cairo;fontSource=https%3A%2F%2Ffonts.googleapis.com%2Fcss%3Ffamily%3Dhttps%253A%252F%252Ffonts.google.com%252Fspecimen%252FCairo;" parent="6wA9G04rgM6HwwRgKZQ5-176" vertex="1">
          <mxGeometry y="133" width="149.44" height="30" as="geometry" />
        </mxCell>
        <mxCell id="6wA9G04rgM6HwwRgKZQ5-166" value="&lt;div&gt;Replicate human intelligence&lt;/div&gt;" style="rounded=1;whiteSpace=wrap;html=1;fillColor=#cce5ff;strokeColor=#36393d;fontFamily=https://fonts.google.com/specimen/Cairo;fontSource=https%3A%2F%2Ffonts.googleapis.com%2Fcss%3Ffamily%3Dhttps%253A%252F%252Ffonts.google.com%252Fspecimen%252FCairo;align=center;" parent="6wA9G04rgM6HwwRgKZQ5-176" vertex="1">
          <mxGeometry x="210.5" width="165.5" height="30" as="geometry" />
        </mxCell>
        <mxCell id="6wA9G04rgM6HwwRgKZQ5-171" style="edgeStyle=orthogonalEdgeStyle;rounded=0;orthogonalLoop=1;jettySize=auto;html=1;entryX=0;entryY=0.5;entryDx=0;entryDy=0;" parent="6wA9G04rgM6HwwRgKZQ5-176" source="6wA9G04rgM6HwwRgKZQ5-165" target="6wA9G04rgM6HwwRgKZQ5-166" edge="1">
          <mxGeometry relative="1" as="geometry" />
        </mxCell>
        <mxCell id="6wA9G04rgM6HwwRgKZQ5-167" value="&lt;div&gt;Solve Knowledge-intensive tasks&lt;/div&gt;" style="rounded=1;whiteSpace=wrap;html=1;fillColor=#cce5ff;strokeColor=#36393d;fontFamily=https://fonts.google.com/specimen/Cairo;fontSource=https%3A%2F%2Ffonts.googleapis.com%2Fcss%3Ffamily%3Dhttps%253A%252F%252Ffonts.google.com%252Fspecimen%252FCairo;align=center;" parent="6wA9G04rgM6HwwRgKZQ5-176" vertex="1">
          <mxGeometry x="210.5" y="47" width="183.5" height="30" as="geometry" />
        </mxCell>
        <mxCell id="6wA9G04rgM6HwwRgKZQ5-172" style="edgeStyle=orthogonalEdgeStyle;rounded=0;orthogonalLoop=1;jettySize=auto;html=1;entryX=0;entryY=0.5;entryDx=0;entryDy=0;" parent="6wA9G04rgM6HwwRgKZQ5-176" source="6wA9G04rgM6HwwRgKZQ5-165" target="6wA9G04rgM6HwwRgKZQ5-167" edge="1">
          <mxGeometry relative="1" as="geometry" />
        </mxCell>
        <mxCell id="6wA9G04rgM6HwwRgKZQ5-168" value="&lt;div&gt;An intelligent connection of perception and action&lt;/div&gt;" style="rounded=1;whiteSpace=wrap;html=1;fillColor=#cce5ff;strokeColor=#36393d;fontFamily=https://fonts.google.com/specimen/Cairo;fontSource=https%3A%2F%2Ffonts.googleapis.com%2Fcss%3Ffamily%3Dhttps%253A%252F%252Ffonts.google.com%252Fspecimen%252FCairo;align=center;" parent="6wA9G04rgM6HwwRgKZQ5-176" vertex="1">
          <mxGeometry x="210.5" y="92" width="277" height="30" as="geometry" />
        </mxCell>
        <mxCell id="6wA9G04rgM6HwwRgKZQ5-173" style="edgeStyle=orthogonalEdgeStyle;rounded=0;orthogonalLoop=1;jettySize=auto;html=1;entryX=0;entryY=0.5;entryDx=0;entryDy=0;" parent="6wA9G04rgM6HwwRgKZQ5-176" source="6wA9G04rgM6HwwRgKZQ5-165" target="6wA9G04rgM6HwwRgKZQ5-168" edge="1">
          <mxGeometry relative="1" as="geometry" />
        </mxCell>
        <mxCell id="6wA9G04rgM6HwwRgKZQ5-169" value="&lt;div&gt;Building a machine which can perform tasks that requires human intelligence &lt;font color=&quot;#3333ff&quot;&gt;&lt;b&gt;such&amp;nbsp;&lt;/b&gt;&lt;/font&gt;&lt;span style=&quot;background-color: initial;&quot;&gt;&lt;font color=&quot;#3333ff&quot;&gt;&lt;b&gt;as&lt;/b&gt;&lt;/font&gt;:&amp;nbsp;&lt;/span&gt;&lt;i&gt;&lt;span style=&quot;background-color: initial;&quot;&gt;[Proving a theorem,&amp;nbsp;&lt;/span&gt;&lt;span style=&quot;background-color: initial;&quot;&gt;Playing chess,&amp;nbsp;&lt;/span&gt;&lt;span style=&quot;background-color: initial;&quot;&gt;Plan some surgical operation,&amp;nbsp;&lt;/span&gt;&lt;span style=&quot;background-color: initial;&quot;&gt;Driving a car in traffic]&lt;/span&gt;&lt;/i&gt;&lt;/div&gt;" style="rounded=1;whiteSpace=wrap;html=1;fillColor=#cce5ff;strokeColor=#36393d;fontFamily=https://fonts.google.com/specimen/Cairo;fontSource=https%3A%2F%2Ffonts.googleapis.com%2Fcss%3Ffamily%3Dhttps%253A%252F%252Ffonts.google.com%252Fspecimen%252FCairo;align=center;" parent="6wA9G04rgM6HwwRgKZQ5-176" vertex="1">
          <mxGeometry x="210.5" y="139" width="315.5" height="69" as="geometry" />
        </mxCell>
        <mxCell id="6wA9G04rgM6HwwRgKZQ5-175" style="edgeStyle=orthogonalEdgeStyle;rounded=0;orthogonalLoop=1;jettySize=auto;html=1;entryX=0;entryY=0.5;entryDx=0;entryDy=0;" parent="6wA9G04rgM6HwwRgKZQ5-176" source="6wA9G04rgM6HwwRgKZQ5-165" target="6wA9G04rgM6HwwRgKZQ5-169" edge="1">
          <mxGeometry relative="1" as="geometry" />
        </mxCell>
        <mxCell id="6wA9G04rgM6HwwRgKZQ5-170" value="&lt;div&gt;Creating some system which can exhibit intelligent behavior, learn new things by itself, demonstrate, explain, and can advise to its user.&lt;/div&gt;" style="rounded=1;whiteSpace=wrap;html=1;fillColor=#cce5ff;strokeColor=#36393d;fontFamily=https://fonts.google.com/specimen/Cairo;fontSource=https%3A%2F%2Ffonts.googleapis.com%2Fcss%3Ffamily%3Dhttps%253A%252F%252Ffonts.google.com%252Fspecimen%252FCairo;align=center;" parent="6wA9G04rgM6HwwRgKZQ5-176" vertex="1">
          <mxGeometry x="210.5" y="223" width="323.5" height="52" as="geometry" />
        </mxCell>
        <mxCell id="6wA9G04rgM6HwwRgKZQ5-174" style="edgeStyle=orthogonalEdgeStyle;rounded=0;orthogonalLoop=1;jettySize=auto;html=1;entryX=0;entryY=0.5;entryDx=0;entryDy=0;" parent="6wA9G04rgM6HwwRgKZQ5-176" source="6wA9G04rgM6HwwRgKZQ5-165" target="6wA9G04rgM6HwwRgKZQ5-170" edge="1">
          <mxGeometry relative="1" as="geometry" />
        </mxCell>
        <mxCell id="6wA9G04rgM6HwwRgKZQ5-195" value="" style="group" parent="1" vertex="1" connectable="0">
          <mxGeometry x="889" y="1855" width="400" height="332" as="geometry" />
        </mxCell>
        <mxCell id="6wA9G04rgM6HwwRgKZQ5-196" value="" style="group" parent="6wA9G04rgM6HwwRgKZQ5-195" vertex="1" connectable="0">
          <mxGeometry y="52" width="400" height="280" as="geometry" />
        </mxCell>
        <mxCell id="6wA9G04rgM6HwwRgKZQ5-197" value="" style="rounded=1;whiteSpace=wrap;html=1;sketch=1;hachureGap=4;jiggle=2;curveFitting=1;fontFamily=Architects Daughter;fontSource=https%3A%2F%2Ffonts.googleapis.com%2Fcss%3Ffamily%3DArchitects%2BDaughter;fillColor=none;arcSize=4;strokeWidth=2;" parent="6wA9G04rgM6HwwRgKZQ5-196" vertex="1">
          <mxGeometry y="61" width="400" height="219" as="geometry" />
        </mxCell>
        <mxCell id="6wA9G04rgM6HwwRgKZQ5-198" value="Mathematics" style="rounded=1;whiteSpace=wrap;html=1;sketch=1;hachureGap=4;jiggle=2;curveFitting=1;fontFamily=Architects Daughter;fontSource=https%3A%2F%2Ffonts.googleapis.com%2Fcss%3Ffamily%3DArchitects%2BDaughter;strokeWidth=2;fillColor=#ffff88;strokeColor=#36393d;fontSize=16;fontStyle=1;labelBorderColor=none;textShadow=0;labelBackgroundColor=none;align=left;spacing=7;verticalAlign=middle;" parent="6wA9G04rgM6HwwRgKZQ5-196" vertex="1">
          <mxGeometry x="38" y="80" width="101" height="40" as="geometry" />
        </mxCell>
        <mxCell id="6wA9G04rgM6HwwRgKZQ5-199" value="Psychology" style="rounded=1;whiteSpace=wrap;html=1;sketch=1;hachureGap=4;jiggle=2;curveFitting=1;fontFamily=Architects Daughter;fontSource=https%3A%2F%2Ffonts.googleapis.com%2Fcss%3Ffamily%3DArchitects%2BDaughter;strokeWidth=2;fillColor=#ffcc99;strokeColor=#36393d;fontSize=16;fontStyle=1;labelBorderColor=none;textShadow=0;labelBackgroundColor=none;align=left;spacing=7;verticalAlign=middle;" parent="6wA9G04rgM6HwwRgKZQ5-196" vertex="1">
          <mxGeometry x="274.5" y="80" width="94.5" height="40" as="geometry" />
        </mxCell>
        <mxCell id="6wA9G04rgM6HwwRgKZQ5-200" value="Biology" style="rounded=1;whiteSpace=wrap;html=1;sketch=1;hachureGap=4;jiggle=2;curveFitting=1;fontFamily=Architects Daughter;fontSource=https%3A%2F%2Ffonts.googleapis.com%2Fcss%3Ffamily%3DArchitects%2BDaughter;strokeWidth=2;fillColor=#cce5ff;strokeColor=#36393d;fontSize=16;fontStyle=1;labelBorderColor=none;textShadow=0;labelBackgroundColor=none;align=left;spacing=7;verticalAlign=middle;" parent="6wA9G04rgM6HwwRgKZQ5-196" vertex="1">
          <mxGeometry x="174.75" y="80" width="61" height="40" as="geometry" />
        </mxCell>
        <mxCell id="6wA9G04rgM6HwwRgKZQ5-201" value="Sociology" style="rounded=1;whiteSpace=wrap;html=1;sketch=1;hachureGap=4;jiggle=2;curveFitting=1;fontFamily=Architects Daughter;fontSource=https%3A%2F%2Ffonts.googleapis.com%2Fcss%3Ffamily%3DArchitects%2BDaughter;strokeWidth=2;fillColor=#cdeb8b;strokeColor=#36393d;fontSize=16;fontStyle=1;labelBorderColor=none;textShadow=0;labelBackgroundColor=none;align=left;spacing=7;verticalAlign=middle;" parent="6wA9G04rgM6HwwRgKZQ5-196" vertex="1">
          <mxGeometry x="77.88" y="150" width="82.12" height="40" as="geometry" />
        </mxCell>
        <mxCell id="6wA9G04rgM6HwwRgKZQ5-202" value="&lt;div&gt;Computer Science&lt;/div&gt;" style="rounded=1;whiteSpace=wrap;html=1;sketch=1;hachureGap=4;jiggle=2;curveFitting=1;fontFamily=Architects Daughter;fontSource=https%3A%2F%2Ffonts.googleapis.com%2Fcss%3Ffamily%3DArchitects%2BDaughter;strokeWidth=2;fillColor=#ffcccc;strokeColor=#36393d;fontSize=16;fontStyle=1;labelBorderColor=none;textShadow=0;labelBackgroundColor=none;align=center;spacing=7;verticalAlign=middle;" parent="6wA9G04rgM6HwwRgKZQ5-196" vertex="1">
          <mxGeometry x="217.13" y="150" width="152.87" height="40" as="geometry" />
        </mxCell>
        <mxCell id="6wA9G04rgM6HwwRgKZQ5-203" value="&lt;div&gt;Neurons Study&lt;/div&gt;" style="rounded=1;whiteSpace=wrap;html=1;sketch=1;hachureGap=4;jiggle=2;curveFitting=1;fontFamily=Architects Daughter;fontSource=https%3A%2F%2Ffonts.googleapis.com%2Fcss%3Ffamily%3DArchitects%2BDaughter;strokeWidth=2;fillColor=#cce5ff;strokeColor=#36393d;fontSize=16;fontStyle=1;labelBorderColor=none;textShadow=0;labelBackgroundColor=none;align=left;spacing=7;verticalAlign=middle;" parent="6wA9G04rgM6HwwRgKZQ5-196" vertex="1">
          <mxGeometry x="98" y="220" width="121.5" height="40" as="geometry" />
        </mxCell>
        <mxCell id="6wA9G04rgM6HwwRgKZQ5-204" value="" style="group;flipH=0;" parent="6wA9G04rgM6HwwRgKZQ5-196" vertex="1" connectable="0">
          <mxGeometry x="-1" y="-32" width="376" height="95" as="geometry" />
        </mxCell>
        <mxCell id="6wA9G04rgM6HwwRgKZQ5-205" value="&lt;div style=&quot;font-size: 13px;&quot;&gt;is a combination of Reasoning, learning, problem-solving perception,&amp;nbsp;&lt;span style=&quot;background-color: initial;&quot;&gt;language understanding, etc&lt;/span&gt;&lt;/div&gt;" style="rounded=1;whiteSpace=wrap;html=1;hachureGap=4;fontFamily=Mina;strokeWidth=2;fillColor=#ffcccc;strokeColor=#36393d;fontSize=16;fontStyle=1;labelBorderColor=none;textShadow=0;labelBackgroundColor=none;align=left;spacing=7;verticalAlign=middle;" parent="6wA9G04rgM6HwwRgKZQ5-204" vertex="1">
          <mxGeometry y="25" width="376" height="45" as="geometry" />
        </mxCell>
        <mxCell id="6wA9G04rgM6HwwRgKZQ5-206" value="&lt;div&gt;To achieve the above factors that requires&lt;/div&gt;" style="text;html=1;strokeColor=none;fillColor=none;align=center;verticalAlign=middle;whiteSpace=wrap;rounded=0;fontFamily=Marhey;" parent="6wA9G04rgM6HwwRgKZQ5-204" vertex="1">
          <mxGeometry x="80" y="68" width="251" height="30" as="geometry" />
        </mxCell>
        <mxCell id="6wA9G04rgM6HwwRgKZQ5-207" value="Statistics" style="rounded=1;whiteSpace=wrap;html=1;sketch=1;hachureGap=4;jiggle=2;curveFitting=1;fontFamily=Architects Daughter;fontSource=https%3A%2F%2Ffonts.googleapis.com%2Fcss%3Ffamily%3DArchitects%2BDaughter;strokeWidth=2;fillColor=#cce5ff;strokeColor=#36393d;fontSize=16;fontStyle=1;labelBorderColor=none;textShadow=0;labelBackgroundColor=none;align=left;spacing=7;verticalAlign=middle;" parent="6wA9G04rgM6HwwRgKZQ5-196" vertex="1">
          <mxGeometry x="247" y="220" width="81" height="40" as="geometry" />
        </mxCell>
        <mxCell id="6wA9G04rgM6HwwRgKZQ5-208" value="&lt;div&gt;What Comprises to AI?&lt;/div&gt;" style="rounded=1;whiteSpace=wrap;html=1;hachureGap=4;fontFamily=Mina;strokeWidth=2;fillColor=#e51400;strokeColor=#B20000;fontSize=22;fontStyle=1;labelBorderColor=none;textShadow=0;labelBackgroundColor=none;align=center;spacing=5;verticalAlign=middle;spacingTop=3;spacingRight=2;fontColor=#ffffff;" parent="6wA9G04rgM6HwwRgKZQ5-195" vertex="1">
          <mxGeometry x="16" width="244.11" height="45" as="geometry" />
        </mxCell>
      </root>
    </mxGraphModel>
  </diagram>
</mxfile>
